# xmcd
#
# Track frame offsets:
#	150
#	17693
#	30792
#	43704
#	56578
#	69590
#	83156
#	99962
#	111859
#	122109
#	136541
#	153741
#	164494
#	184430
#	200247
#	212337
#	224817
#	239340
#	254365
#	269936
#
# Disc length: 3726 seconds
#
# Revision: 1
# Processed by: cddbd v1.5.2PL0 Copyright (c) Steve Scherf et al.
# Submitted via: audiograbber 1.83.01
#
DISCID=2b0e8c14
DTITLE=Various Artist - Country Love Songs, CD 1
DYEAR=2004
DGENRE=Country
TTITLE0=Kenny Rogers - Lady
TTITLE1=Crystal Gayle - Talking In Your Sleep
TTITLE2=Bilie Jo Spears - What The World Needs Now Is Love
TTITLE3=Don Williams - You Love Me Through It All
TTITLE4=Dr. Hook - Sharing The Night Together
TTITLE5=Glen Campbell - Honey Come Back
TTITLE6=Suzy Bogguss - Train Of Thought
TTITLE7=Wanda Jackson - Crazy
TTITLE8=Willie Nelson - There'll Be No Teardrops Tonight
TTITLE9=Tanya Tucker - Just Another Love
TTITLE10=The Nitty Gritty Dirt Band - All I Have To Do Is Dreem
TTITLE11=Slim Whitman - The Most Beautiful Girl In The World
TTITLE12=Lacy J. Dalton - Stay With Me
TTITLE13=Juice Newton - Come To Me
TTITLE14=George Jones and Melba Montgomery - We Must Have Been Out Of Our Minds
TTITLE15=Faron Young - Sweet Dreams
TTITLE16=Eddie Rabbitt - The Best Years Of My Life
TTITLE17=Bobbie Gentry - You've Made Me So Very Happy
TTITLE18=Asleep At The Wheel feat. Suzy Bogguss and Ray Benson - Old Fashioned Lo
TTITLE18=ve
TTITLE19=Jean Shepard - Another Lonely Night
EXTD=
EXTT0=
EXTT1=
EXTT2=
EXTT3=
EXTT4=
EXTT5=
EXTT6=
EXTT7=
EXTT8=
EXTT9=
EXTT10=
EXTT11=
EXTT12=
EXTT13=
EXTT14=
EXTT15=
EXTT16=
EXTT17=
EXTT18=
EXTT19=
PLAYORDER=
